<svg width="33" height="33" viewBox="0 0 33 33" fill="none" xmlns="http://www.w3.org/2000/svg">
<path d="M0.5 7.16667C0.5 5.39856 1.20238 3.70286 2.45262 2.45262C3.70286 1.20238 5.39856 0.5 7.16667 0.5H25.8333C27.6014 0.5 29.2971 1.20238 30.5474 2.45262C31.7976 3.70286 32.5 5.39856 32.5 7.16667V25.8333C32.5 27.6014 31.7976 29.2971 30.5474 30.5474C29.2971 31.7976 27.6014 32.5 25.8333 32.5H7.16667C5.39856 32.5 3.70286 31.7976 2.45262 30.5474C1.20238 29.2971 0.5 27.6014 0.5 25.8333V7.16667ZM17.8333 23.1667C17.8333 23.5203 17.9738 23.8594 18.2239 24.1095C18.4739 24.3595 18.813 24.5 19.1667 24.5H25.1667C25.5203 24.5 25.8594 24.3595 26.1095 24.1095C26.3595 23.8594 26.5 23.5203 26.5 23.1667C26.5 22.813 26.3595 22.4739 26.1095 22.2239C25.8594 21.9738 25.5203 21.8333 25.1667 21.8333H19.1667C18.813 21.8333 18.4739 21.9738 18.2239 22.2239C17.9738 22.4739 17.8333 22.813 17.8333 23.1667ZM19.1667 11.1667C18.813 11.1667 18.4739 11.3071 18.2239 11.5572C17.9738 11.8072 17.8333 12.1464 17.8333 12.5C17.8333 12.8536 17.9738 13.1928 18.2239 13.4428C18.4739 13.6929 18.813 13.8333 19.1667 13.8333H25.1667C25.5203 13.8333 25.8594 13.6929 26.1095 13.4428C26.3595 13.1928 26.5 12.8536 26.5 12.5C26.5 12.1464 26.3595 11.8072 26.1095 11.5572C25.8594 11.3071 25.5203 11.1667 25.1667 11.1667H19.1667ZM14.7773 19.556C14.6535 19.4318 14.5063 19.3333 14.3444 19.2661C14.1824 19.1989 14.0087 19.1643 13.8333 19.1643C13.658 19.1643 13.4843 19.1989 13.3223 19.2661C13.1603 19.3333 13.0132 19.4318 12.8893 19.556L9.83333 22.6147L8.78267 21.5613C8.53266 21.311 8.19343 21.1702 7.83961 21.1699C7.48579 21.1697 7.14636 21.31 6.896 21.56C6.64564 21.81 6.50484 22.1492 6.50459 22.5031C6.50434 22.8569 6.64466 23.1963 6.89467 23.4467L8.88933 25.444C9.01319 25.5682 9.16032 25.6667 9.32231 25.7339C9.4843 25.8011 9.65795 25.8357 9.83333 25.8357C10.0087 25.8357 10.1824 25.8011 10.3444 25.7339C10.5063 25.6667 10.6535 25.5682 10.7773 25.444L14.7773 21.444C14.9015 21.3201 15 21.173 15.0672 21.011C15.1345 20.849 15.1691 20.6754 15.1691 20.5C15.1691 20.3246 15.1345 20.151 15.0672 19.989C15 19.827 14.9015 19.6799 14.7773 19.556ZM14.7773 10.7773C14.9013 10.6534 14.9996 10.5062 15.0667 10.3442C15.1338 10.1823 15.1684 10.0087 15.1684 9.83333C15.1684 9.65802 15.1338 9.48442 15.0667 9.32244C14.9996 9.16047 14.9013 9.0133 14.7773 8.88933C14.6534 8.76537 14.5062 8.66703 14.3442 8.59994C14.1823 8.53285 14.0087 8.49832 13.8333 8.49832C13.658 8.49832 13.4844 8.53285 13.3224 8.59994C13.1605 8.66703 13.0133 8.76537 12.8893 8.88933L9.83333 11.948L8.78267 10.8947C8.5323 10.6443 8.19274 10.5036 7.83867 10.5036C7.4846 10.5036 7.14503 10.6443 6.89467 10.8947C6.6443 11.145 6.50365 11.4846 6.50365 11.8387C6.50365 12.1927 6.6443 12.5323 6.89467 12.7827L8.88933 14.7773C9.01319 14.9015 9.16032 15 9.32231 15.0672C9.4843 15.1345 9.65795 15.1691 9.83333 15.1691C10.0087 15.1691 10.1824 15.1345 10.3444 15.0672C10.5063 15 10.6535 14.9015 10.7773 14.7773L14.7773 10.7773Z" fill="#1A223F"/>
</svg>
